<svg xmlns="http://www.w3.org/2000/svg" viewBox="0 0 1006.72 238.18"><defs><style>.cls-1{fill:#1d1d1b;}</style></defs><title>2018</title><g id="Layer_2" data-name="Layer 2"><g id="Layer_1-2" data-name="Layer 1"><path class="cls-1" d="M79.5,201.35c63.22,0,67.83-1.84,74.58-17.5h2.76l-10.74,39.6c-2.76,10.12-3.38,11.66-9.21,11.66H0l59.54-70.29c35.61-41.13,47.89-68.14,47.89-103.74,0-37.14-10.75-55.86-36.22-55.86C45.12,5.22,45.12,22.1,42.66,39.9,41.44,51,35,58.32,23.94,58.32c-10.13,0-17.19-8-17.19-17.81,0-17.18,20.87-38,64.77-38,29.77,0,77.34,13.5,77.34,60.77,0,38.36-30.38,70.59-71.21,102.51L32.23,201.35Z"/><path class="cls-1" d="M352.66,119.7c0,68.76-45.12,117.86-91.46,117.86s-93.31-49.1-93.31-117.86S214.85,2.46,261.2,2.46,352.66,51,352.66,119.7Zm-142.41,0c0,81,20.56,115.1,50.95,115.1,30.69,0,49.41-34.07,49.41-115.1,0-81.33-22.4-114.48-49.41-114.48C233.88,5.22,210.25,38.37,210.25,119.7Z"/><path class="cls-1" d="M372.61,235.11V233c20.87-3.38,23-7.67,23-74.58V93.31c0-45.12-.61-47.58-23.63-46V44.81L434.92,0V158.38c0,66.91.92,71.2,21.79,74.58v2.15Z"/><path class="cls-1" d="M554.31,238.18c-46,0-81-26.4-81-55.86,0-29.78,25.48-48.5,56.48-60.78-31.62-17.8-47-34.68-47-61.69,0-38.06,36.83-58,70.9-58,42.66,0,69.36,23,69.36,49.72,0,24.25-23.63,41.13-47,50.34,34.38,19.64,55.86,39,55.86,70C632,209.63,595.75,238.18,554.31,238.18Zm47-43.89c0-32.23-20.26-45.12-54.63-63.23l-14.12-7.67c-18.11,9.51-28.85,25.47-28.85,56.47,0,32.23,12,55.56,50.64,55.56C589.92,235.42,601.27,219.76,601.27,194.29ZM573,100.37c14.74-8.29,24-20.88,24-48.19,0-30.7-15-47.58-43.28-47.58-27,0-43.28,11.05-43.28,36.84,0,23.63,20.26,36.21,51.87,53.09Z"/><path class="cls-1" d="M659.28,138.43h58.31l-6.13,23.94H652.83Z"/><path class="cls-1" d="M732,235.11V233c20.87-3.38,23-7.67,23-74.58V93.31c0-45.12-.62-47.58-23.64-46V44.81L794.32,0V158.38c0,66.91.92,71.2,21.8,74.58v2.15Z"/><path class="cls-1" d="M965,144.56c-12,11.05-28.86,19.65-48.5,19.65-43.89,0-83.79-25.17-83.79-78,0-54,47.88-82.87,82.56-82.87,44.2,0,91.47,37.75,91.47,113.87,0,71.21-44.2,120.31-101.6,120.31-39.28,0-62.92-15.34-62.92-32.53,0-8.59,5.84-15.65,15.35-15.65,10.74,0,17.19,4.6,18.42,16.57,2.45,19.64,4.6,28.85,29.15,28.85C947.79,234.8,962.52,202.88,965,144.56Zm-48.19,16.89c19.64,0,36.52-9.21,48.49-20.57.31-7.67.31-15.35.31-23.63,0-79.8-22.71-111.11-50.34-111.11-25.78,0-42,24.86-42,79.19C873.2,135.36,884,161.45,916.79,161.45Z"/></g></g></svg>