<svg version="1.1" xmlns="http://www.w3.org/2000/svg">
<g><g><path d="M495.5,990c-0.1,0-0.8,0-0.9,0c-40.4-0.5-72.7-39-72.1-85.6l8.5-660.8l-230.3,226c-23.9,23.9-67.3,23.1-92.2-1.9c-12.9-12.8-20-29.8-20.1-47.7c0-16.9,6.4-32.7,18.1-44.4L454.6,27.6C466.1,16.2,481.7,10,498.7,10c12.8,1.6,35,5.8,46.8,17.6l347.9,347.9c24.9,24.9,24,66.3-1.9,92.2c-12.9,12.9-29.9,20-47.9,20l0,0c-16.9,0-32.7-6.4-44.4-18.1L577.2,247.5l-8.5,658.7C568.1,952.5,535.3,990,495.5,990z M434.4,192c13.1,0,25.2,4.6,33.2,12.6c6.2,6.3,9.5,14.3,9.5,22.7L468.3,905c-0.3,21.1,12.1,39.1,27,39.3l0.3,22.9v-22.9c14.6,0,27.3-17.7,27.6-38.6l8.7-677.6c0.2-19.1,17.6-34.3,39.5-34.3c9.9,0,19.2,3.4,26.2,9.5l234.1,234c3.1,3.1,7.4,4.8,12.1,4.8l0,0c5.6,0,11.3-2.4,15.5-6.7c8.1-8.1,8.9-20.5,1.9-27.6L513.2,60c-1.6-1-10.5-3.5-17.3-4.5c-2.1,0.2-6.1,1.7-9,4.5L138.9,407.9c-3.9,3.9-4.8,8.7-4.8,12c0,5.7,2.4,11.2,6.7,15.5c7.9,7.8,20.7,8.7,27.6,1.9l233-232.9C411,196,422.3,192,434.4,192z"/></g><g></g><g></g><g></g><g></g><g></g><g></g><g></g><g></g><g></g><g></g><g></g><g></g><g></g><g></g><g></g></g>
</svg>