<svg xmlns="http://www.w3.org/2000/svg" viewBox="0 0 555.24 72.28"><defs><style>.cls-1{fill:#1d1d1b;}</style></defs><title>connect</title><g id="Layer_2" data-name="Layer 2"><g id="Layer_1-2" data-name="Layer 1"><path class="cls-1" d="M64.43,56.09a31.24,31.24,0,0,1-7.18,8.63,32.15,32.15,0,0,1-10,5.59,37.09,37.09,0,0,1-12.29,2,40.29,40.29,0,0,1-14.65-2.5,30.18,30.18,0,0,1-11-7.23A31.91,31.91,0,0,1,2.41,51.13,44.32,44.32,0,0,1,0,36,42.78,42.78,0,0,1,2.46,21.11,31.79,31.79,0,0,1,9.54,9.73,30.87,30.87,0,0,1,20.72,2.51,41,41,0,0,1,35.47,0,35,35,0,0,1,47.56,2a31.06,31.06,0,0,1,9.73,5.64,30.14,30.14,0,0,1,6.9,8.63,33.18,33.18,0,0,1,3.56,11H51.56a18.21,18.21,0,0,0-2.26-6.16,14.63,14.63,0,0,0-3.81-4.24,15.67,15.67,0,0,0-5-2.46,19.59,19.59,0,0,0-5.64-.82A16,16,0,0,0,28,15.08a15.84,15.84,0,0,0-5.54,4.39,21.6,21.6,0,0,0-3.71,7.08A30.94,30.94,0,0,0,17.44,36a32.11,32.11,0,0,0,1.35,9.74,21.57,21.57,0,0,0,3.71,7.13,15.27,15.27,0,0,0,5.59,4.34,17,17,0,0,0,7,1.44,24.25,24.25,0,0,0,5.4-.62,14.63,14.63,0,0,0,5-2.22,15.1,15.1,0,0,0,4-4.24A18.49,18.49,0,0,0,52,45H68.23A32.63,32.63,0,0,1,64.43,56.09Z"/><path class="cls-1" d="M152.9,51a32.83,32.83,0,0,1-7.42,11.37A33.15,33.15,0,0,1,134,69.68a43,43,0,0,1-29.44,0,33.31,33.31,0,0,1-11.42-7.33A32.83,32.83,0,0,1,85.73,51a39.69,39.69,0,0,1-2.65-14.84A39.69,39.69,0,0,1,85.73,21.3,33,33,0,0,1,93.15,9.93,33.31,33.31,0,0,1,104.57,2.6,43,43,0,0,1,134,2.6,32.31,32.31,0,0,1,152.9,21.3a39.69,39.69,0,0,1,2.65,14.84A39.69,39.69,0,0,1,152.9,51ZM102,45.92a20.81,20.81,0,0,0,4,7,16.92,16.92,0,0,0,6,4.29,19.1,19.1,0,0,0,14.55,0,16.92,16.92,0,0,0,6-4.29,21,21,0,0,0,4.05-7,29.23,29.23,0,0,0,1.49-9.78,29.23,29.23,0,0,0-1.49-9.78,21,21,0,0,0-4.05-7,16.92,16.92,0,0,0-6-4.29A19.1,19.1,0,0,0,112,15a16.92,16.92,0,0,0-6,4.29,20.81,20.81,0,0,0-4,7,29,29,0,0,0-1.5,9.78A29,29,0,0,0,102,45.92Z"/><path class="cls-1" d="M189.58,22.84V71H173.67V1.16h20.05l28,48.18V1.16h15.91V71h-20Z"/><path class="cls-1" d="M275.84,22.84V71H259.93V1.16H280l28,48.18V1.16h15.91V71H303.88Z"/><path class="cls-1" d="M399.78,1.16V15.61H362.67V27.85h35.08V42.41H362.67V56.48h37.11V71H346.19V1.16Z"/><path class="cls-1" d="M479.92,56.09a31.24,31.24,0,0,1-7.18,8.63,32.15,32.15,0,0,1-10,5.59,37.09,37.09,0,0,1-12.29,2,40.2,40.2,0,0,1-14.64-2.5,30.14,30.14,0,0,1-11-7.23,31.91,31.91,0,0,1-6.94-11.42A44.32,44.32,0,0,1,415.49,36,42.78,42.78,0,0,1,418,21.11,31.79,31.79,0,0,1,425,9.73a31,31,0,0,1,11.18-7.22A41.07,41.07,0,0,1,451,0a34.94,34.94,0,0,1,12.09,2,31.11,31.11,0,0,1,9.74,5.64,30.28,30.28,0,0,1,6.89,8.63,33.18,33.18,0,0,1,3.56,11H467.05a18.21,18.21,0,0,0-2.26-6.16A14.63,14.63,0,0,0,461,16.87a15.67,15.67,0,0,0-5-2.46,19.59,19.59,0,0,0-5.64-.82A15.61,15.61,0,0,0,438,19.47a21.6,21.6,0,0,0-3.71,7.08A30.94,30.94,0,0,0,432.93,36a32.11,32.11,0,0,0,1.35,9.74A21.57,21.57,0,0,0,438,52.91a15.27,15.27,0,0,0,5.59,4.34,17,17,0,0,0,7,1.44,24.25,24.25,0,0,0,5.4-.62,14.63,14.63,0,0,0,5-2.22,15.1,15.1,0,0,0,4-4.24,18.49,18.49,0,0,0,2.5-6.6h16.19A32.63,32.63,0,0,1,479.92,56.09Z"/><path class="cls-1" d="M493.85,15.61V1.16h61.39V15.61H532.78V71H516.21V15.61Z"/></g></g></svg>