<svg xmlns="http://www.w3.org/2000/svg" id="Layer_1" width="199.458px" height="199.436px" x="0px" y="0px" enable-background="new 0 0 199.458 199.436" viewBox="0 0 199.458 199.436"><path d="M0 140.033V60.014c.319-2.283.796-4.556.931-6.849C2.45 27.349 18.843 7.827 43.856 2.409 49.167 1.258 54.624.786 60.014 0h80.019c2.115.313 4.223.794 6.348.912 29.647 1.625 51.748 23.012 52.488 52.587.777 31.124.805 62.301-.033 93.424-.781 29.086-22.81 51.132-51.891 51.91-31.289.838-62.631.765-93.924.01-25.845-.622-45.491-18.01-50.708-43.065C1.234 150.593.756 145.283 0 140.033zm100.085 41.106v-.056c14.663 0 29.334.36 43.981-.112 11.939-.386 22.542-4.493 29.855-14.656 4.93-6.851 7.066-14.778 7.127-23.047.207-28.489.541-56.989-.014-85.469-.474-24.402-14.128-38.245-38.396-38.785a1912.804 1912.804 0 0 0-84.959-.012c-24.51.545-38.134 14.104-38.668 38.479-.624 28.474-.604 56.983.018 85.459.518 23.702 14.462 37.312 38.073 38.108 14.312.485 28.654.091 42.983.091z"/><path d="M99.578 151.289c-28.67-.277-51.227-23.26-50.877-51.835.352-28.675 23.361-51.148 51.965-50.751 28.462.396 50.794 23.155 50.623 51.59-.174 28.641-23.122 51.271-51.711 50.996zm33.578-51.191c.023-18.625-14.586-33.262-33.185-33.247-18.603.016-33.163 14.655-33.121 33.301.042 18.352 14.592 32.938 32.926 33.006 18.641.07 33.358-14.507 33.38-33.06zM153.302 34.725c6.867-.033 11.982 5.017 12.002 11.85.019 6.689-5.309 12.135-11.891 12.156-6.461.021-12.136-5.584-12.188-12.037-.052-6.547 5.387-11.937 12.077-11.969z"/></svg>