<?xml version="1.0" encoding="utf-8"?>
<!-- Generator: Adobe Illustrator 22.0.1, SVG Export Plug-In . SVG Version: 6.00 Build 0)  -->
<svg version="1.1" id="Layer_1" xmlns="http://www.w3.org/2000/svg" xmlns:xlink="http://www.w3.org/1999/xlink" x="0px" y="0px"
	 viewBox="0 0 72.3 1231.3" style="enable-background:new 0 0 72.3 1231.3;" xml:space="preserve">
<style type="text/css">
	.st0{fill:#1D1D1B;}
</style>
<title>left</title>
<g id="Layer_2_1_">
	<g id="Layer_1-2">
		<path class="st0" d="M1.2,1186.9l69.8-26.4v17.9l-12.4,4.2v27l12.4,4.1v17.5L1.2,1205V1186.9z M45.2,1187.1l-26.6,9l26.6,9.1
			V1187.1z"/>
		<path class="st0" d="M56.5,1064.6H71v50H1.2v-16.5h55.3V1064.6z"/>
		<path class="st0" d="M51,986.5c4.3,1.7,8.1,4.2,11.4,7.4c3.2,3.3,5.7,7.2,7.3,11.5c3.5,9.5,3.5,19.9,0,29.4
			c-1.6,4.3-4.1,8.2-7.3,11.5c-3.2,3.2-7.1,5.7-11.3,7.4c-4.7,1.8-9.8,2.7-14.9,2.6c-5.1,0.1-10.1-0.8-14.8-2.7
			c-4.3-1.6-8.1-4.1-11.4-7.3c-3.2-3.3-5.7-7.2-7.3-11.4c-3.5-9.5-3.5-19.9,0-29.4c1.6-4.3,4.1-8.2,7.3-11.5
			c3.2-3.3,7.1-5.8,11.4-7.5c4.7-1.8,9.8-2.7,14.8-2.7C41.2,983.8,46.3,984.6,51,986.5z M45.9,1037.4c2.6-0.9,4.9-2.2,7-4
			c1.9-1.7,3.3-3.7,4.3-6c1.9-4.7,1.9-9.9,0-14.5c-1-2.3-2.4-4.3-4.3-6c-2.1-1.8-4.4-3.1-7-4c-3.2-1.1-6.5-1.6-9.8-1.5
			c-3.3-0.1-6.6,0.4-9.8,1.5c-2.6,0.9-4.9,2.2-7,4c-1.9,1.7-3.3,3.7-4.3,6c-1.9,4.7-1.9,9.9,0,14.5c1,2.3,2.4,4.3,4.3,6
			c2.1,1.8,4.4,3.1,7,4c3.2,1.1,6.5,1.6,9.8,1.5C39.5,1038.9,42.8,1038.4,45.9,1037.4L45.9,1037.4z"/>
		<path class="st0" d="M51,898.2c4.3,1.7,8.1,4.2,11.4,7.4c3.2,3.3,5.7,7.2,7.3,11.5c3.5,9.5,3.5,19.9,0,29.5
			c-1.6,4.3-4.1,8.2-7.3,11.4c-3.2,3.2-7.1,5.8-11.4,7.4c-4.7,1.8-9.8,2.7-14.8,2.7c-5.1,0.1-10.1-0.8-14.8-2.7
			c-4.3-1.7-8.1-4.2-11.4-7.4c-3.2-3.3-5.7-7.1-7.3-11.4c-3.5-9.5-3.5-19.9,0-29.5c1.6-4.3,4.1-8.2,7.3-11.5
			c3.2-3.2,7.1-5.8,11.4-7.4c4.7-1.8,9.8-2.7,14.8-2.7C41.2,895.5,46.3,896.4,51,898.2z M45.9,949.1c2.6-0.9,5-2.2,7-4
			c1.9-1.7,3.3-3.7,4.3-6c1.9-4.7,1.9-9.9,0-14.5c-1-2.3-2.4-4.3-4.3-6c-2.1-1.8-4.4-3.1-7-4c-3.2-1-6.5-1.6-9.8-1.5
			c-3.3-0.1-6.6,0.4-9.8,1.5c-2.6,0.9-4.9,2.2-7,4c-1.9,1.7-3.3,3.7-4.3,6c-1.9,4.7-1.9,9.9,0,14.5c1,2.3,2.4,4.3,4.3,6
			c2,1.8,4.4,3.1,7,4c3.2,1.1,6.5,1.6,9.8,1.5C39.5,950.6,42.8,950.1,45.9,949.1z"/>
		<path class="st0" d="M1.2,835.6v-20.2L29,841.3l42-27.2V834l-29.5,18.9l8.9,8.1H71v16.5H1.2v-16.5h27.7L1.2,835.6z"/>
		<path class="st0" d="M1.2,733.6c0-3.6,0.2-7.1,0.8-10.7c0.4-3,1.4-5.8,2.8-8.4c1.3-2.3,3.2-4.3,5.5-5.6c2.8-1.4,5.9-2.1,9-2
			c3-0.1,5.9,0.7,8.4,2.1c2.5,1.5,4.6,3.6,6.1,6.2c1.1-3.1,3-5.9,5.5-8c2.5-2.1,5.9-3.1,10.2-3.1c3.4-0.1,6.9,0.6,10,2
			c2.7,1.3,5,3.3,6.7,5.7c1.8,2.7,3.1,5.7,3.7,8.9c0.8,3.8,1.2,7.7,1.1,11.6v31.7H1.2V733.6z M29.2,733c0-2.9-0.6-5.1-1.9-6.7
			c-1.3-1.5-3.2-2.4-5.2-2.3c-2-0.1-3.9,0.8-5.1,2.3c-1.4,1.9-2,4.3-1.9,6.7v14.6h14.1L29.2,733z M57.2,732.2c0-3.5-0.7-6.2-2.1-8
			c-1.4-1.8-3.5-2.7-5.8-2.7c-2.2-0.1-4.4,0.9-5.8,2.7c-1.4,1.8-2.1,4.4-2.1,8v15.4h15.8L57.2,732.2z"/>
		<path class="st0" d="M1.2,648L71,621.6v17.9l-12.4,4.2v27l12.4,4.1v17.5L1.2,666.1V648z M45.2,648.2l-26.6,9l26.6,9.1L45.2,648.2z
			"/>
		<path class="st0" d="M56.1,548.5c3.3,1.8,6.2,4.3,8.6,7.2c2.4,3,4.3,6.4,5.6,10c1.4,4,2,8.1,2,12.3c0.1,5-0.8,10-2.5,14.7
			c-1.6,4.2-4,7.9-7.2,11c-3.3,3.1-7.2,5.5-11.4,6.9c-4.9,1.7-10,2.5-15.2,2.4c-5.1,0.1-10.1-0.8-14.9-2.5
			c-4.3-1.5-8.1-3.9-11.4-7.1c-3.2-3.2-5.7-7-7.2-11.2c-1.7-4.7-2.6-9.7-2.5-14.7c-0.1-4.1,0.6-8.2,2-12.1c1.3-3.6,3.2-6.9,5.6-9.7
			c2.4-2.8,5.4-5.1,8.6-6.9c3.4-1.8,7.2-3,11-3.6v16.2c-2.2,0.4-4.3,1.1-6.2,2.3c-1.6,1-3.1,2.3-4.2,3.8c-1.1,1.5-1.9,3.2-2.5,5
			c-0.5,1.8-0.8,3.7-0.8,5.6c0,2.4,0.5,4.7,1.5,6.8c1,2.2,2.5,4,4.4,5.5c2.1,1.7,4.5,2.9,7.1,3.7c3.1,0.9,6.3,1.4,9.4,1.3
			c3.3,0.1,6.6-0.4,9.7-1.3c2.6-0.8,5-2,7.1-3.7c1.9-1.5,3.4-3.4,4.3-5.6c1-2.2,1.5-4.6,1.4-7c0-1.8-0.2-3.6-0.6-5.4
			c-0.4-1.8-1.2-3.5-2.2-5c-1.1-1.6-2.6-3-4.2-4c-2-1.3-4.3-2.1-6.6-2.5v-16.2C48.9,545.3,52.6,546.6,56.1,548.5z"/>
		<path class="st0" d="M1.2,484.9v-20.1L29,490.6l42-27.2v19.8l-29.5,18.9l8.9,8.1H71v16.5H1.2v-16.5h27.7L1.2,484.9z"/>
		<path class="st0" d="M71,418.1H1.2v-16.5H71V418.1z"/>
		<path class="st0" d="M22.8,363.4H71v15.9H1.2v-20l48.2-28H1.2v-15.9H71v20L22.8,363.4z"/>
		<path class="st0" d="M15.6,268.6H1.2v-61.4h14.4v22.5H71v16.6H15.6V268.6z"/>
		<path class="st0" d="M71,190.7H1.2v-16.4H71V190.7z"/>
		<path class="st0" d="M15.1,136H71v16H1.2v-26l50.1-13.4L1.2,98.9V73.1H71v16H15l56,15.6v15.5L15.1,136z"/>
		<path class="st0" d="M1.2-2.7h14.4v37.1h12.2V-0.7h14.6v35.1h14.1V-2.7H71v53.6H1.2V-2.7z"/>
	</g>
</g>
</svg>
