<svg xmlns="http://www.w3.org/2000/svg" viewBox="0 0 72.28 1199.05"><defs><style>.cls-1{fill:#1d1d1b;}</style></defs><title>left</title><g id="Layer_2" data-name="Layer 2"><g id="Layer_1-2" data-name="Layer 1"><path class="cls-1" d="M1.16,1154.62,71,1128.21v17.93l-12.43,4.24v27L71,1181.51v17.54L1.16,1172.74Zm44,.19-26.6,9,26.6,9.06Z"/><path class="cls-1" d="M56.48,1032.31H71v50H1.16v-16.48H56.48Z"/><path class="cls-1" d="M51,954.2a32.69,32.69,0,0,1,11.37,7.42,33.15,33.15,0,0,1,7.33,11.47,43,43,0,0,1,0,29.44A33.31,33.31,0,0,1,62.35,1014,32.83,32.83,0,0,1,51,1021.37,39.69,39.69,0,0,1,36.14,1024a39.69,39.69,0,0,1-14.84-2.65A33,33,0,0,1,9.93,1014a33.31,33.31,0,0,1-7.33-11.42,43,43,0,0,1,0-29.44,33.15,33.15,0,0,1,7.33-11.47A32.88,32.88,0,0,1,21.3,954.2a39.69,39.69,0,0,1,14.84-2.65A39.69,39.69,0,0,1,51,954.2Zm-5.06,50.88a20.81,20.81,0,0,0,7-4,16.92,16.92,0,0,0,4.29-6,19.1,19.1,0,0,0,0-14.55,16.83,16.83,0,0,0-4.29-6,21,21,0,0,0-7-4A29.23,29.23,0,0,0,36.14,969a29.23,29.23,0,0,0-9.78,1.49,21,21,0,0,0-7,4,16.83,16.83,0,0,0-4.29,6,19.1,19.1,0,0,0,0,14.55,16.92,16.92,0,0,0,4.29,6,20.81,20.81,0,0,0,7,4,29,29,0,0,0,9.78,1.5A29,29,0,0,0,45.92,1005.08Z"/><path class="cls-1" d="M51,865.92a32.69,32.69,0,0,1,11.37,7.42,33.2,33.2,0,0,1,7.33,11.46,43,43,0,0,1,0,29.45,33.31,33.31,0,0,1-7.33,11.42A32.83,32.83,0,0,1,51,933.09a39.89,39.89,0,0,1-14.84,2.65,39.89,39.89,0,0,1-14.84-2.65,33,33,0,0,1-11.37-7.42A33.31,33.31,0,0,1,2.6,914.25a43,43,0,0,1,0-29.45,33.2,33.2,0,0,1,7.33-11.46,32.88,32.88,0,0,1,11.37-7.42,39.69,39.69,0,0,1,14.84-2.65A39.69,39.69,0,0,1,51,865.92ZM45.92,916.8a20.67,20.67,0,0,0,7-4,16.8,16.8,0,0,0,4.29-6,19.1,19.1,0,0,0,0-14.55,16.75,16.75,0,0,0-4.29-6,21,21,0,0,0-7-4,29.23,29.23,0,0,0-9.78-1.49,29.23,29.23,0,0,0-9.78,1.49,21,21,0,0,0-7,4,16.75,16.75,0,0,0-4.29,6,19.1,19.1,0,0,0,0,14.55,16.8,16.8,0,0,0,4.29,6,20.67,20.67,0,0,0,7,4,29,29,0,0,0,9.78,1.49A29,29,0,0,0,45.92,916.8Z"/><path class="cls-1" d="M1.16,803.32V783.17L29,809l42-27.18v19.86L41.54,820.57l8.86,8.09H71v16.48H1.16V828.66H28.82Z"/><path class="cls-1" d="M1.16,736.33a67.64,67.64,0,0,1,.77-10.65,24.76,24.76,0,0,1,2.79-8.43,14.72,14.72,0,0,1,5.54-5.59,17.93,17.93,0,0,1,9-2,16.29,16.29,0,0,1,8.43,2.12,17.86,17.86,0,0,1,6.12,6.16,17.49,17.49,0,0,1,5.54-8q3.81-3.09,10.17-3.09a22.31,22.31,0,0,1,10,2,17.09,17.09,0,0,1,6.65,5.73,25.17,25.17,0,0,1,3.71,8.91A53.52,53.52,0,0,1,71,735.08v31.71H1.16Zm28-.58c0-2.89-.65-5.1-1.93-6.65A6.44,6.44,0,0,0,22,726.79a6.14,6.14,0,0,0-5.1,2.31A10.53,10.53,0,0,0,15,735.75v14.56H29.11Zm28-.86q0-5.31-2.12-7.95a7,7,0,0,0-5.78-2.65,7,7,0,0,0-5.78,2.65q-2.13,2.64-2.13,7.95v15.42H57.15Z"/><path class="cls-1" d="M1.16,650.75,71,624.34v17.93L58.6,646.51v27L71,677.64v17.54L1.16,668.87Zm44,.19-26.6,9L45.2,669Z"/><path class="cls-1" d="M56.09,551.24a31.06,31.06,0,0,1,8.63,7.18,32.1,32.1,0,0,1,5.59,10,37.13,37.13,0,0,1,2,12.29,40.29,40.29,0,0,1-2.5,14.65,30.22,30.22,0,0,1-7.23,11,31.75,31.75,0,0,1-11.42,6.93A44.32,44.32,0,0,1,36,615.66a43,43,0,0,1-14.93-2.45,31.68,31.68,0,0,1-11.38-7.09,30.87,30.87,0,0,1-7.22-11.18A41,41,0,0,1,0,580.2a35,35,0,0,1,2-12.1,31.06,31.06,0,0,1,5.64-9.73,30.11,30.11,0,0,1,8.63-6.89,33,33,0,0,1,11-3.57V564.1a18.21,18.21,0,0,0-6.16,2.27,14.63,14.63,0,0,0-4.24,3.81,15.57,15.57,0,0,0-2.46,5,19.49,19.49,0,0,0-.82,5.64,16,16,0,0,0,1.49,6.84,15.76,15.76,0,0,0,4.39,5.54,21.6,21.6,0,0,0,7.08,3.71A30.94,30.94,0,0,0,36,598.22a32.11,32.11,0,0,0,9.74-1.35,21.57,21.57,0,0,0,7.13-3.71,15.19,15.19,0,0,0,4.34-5.59,17,17,0,0,0,1.44-7,24.17,24.17,0,0,0-.62-5.39,14.63,14.63,0,0,0-2.22-5,14.83,14.83,0,0,0-4.24-4,18.49,18.49,0,0,0-6.6-2.51V547.43A32.5,32.5,0,0,1,56.09,551.24Z"/><path class="cls-1" d="M1.16,487.67V467.53L29,493.36l42-27.18V486L41.54,504.93,50.4,513H71V529.5H1.16V513H28.82Z"/><path class="cls-1" d="M71,420.79H1.16V404.31H71Z"/><path class="cls-1" d="M22.84,366.14H71V382H1.16V362L49.34,334H1.16v-15.9H71v20Z"/><path class="cls-1" d="M15.61,271.3H1.16V209.91H15.61v22.46H71v16.57H15.61Z"/><path class="cls-1" d="M71,193.43H1.16V177H71Z"/><path class="cls-1" d="M15.13,138.69H71v16H1.16v-26l50.11-13.39L1.16,101.58V75.85H71v16H15l56,15.61V123Z"/><path class="cls-1" d="M1.16,0H15.61V37.1H27.85V2H42.41V37.1H56.48V0H71V53.58H1.16Z"/></g></g></svg>