<svg xmlns="http://www.w3.org/2000/svg" viewBox="0 0 1170.24 1172.99"><title>Asset 1</title><g id="Layer_2" data-name="Layer 2"><g id="Layer_1-2" data-name="Layer 1"><path d="M541.08,58.48l1.12,8.66-43.57,5.61L490.29,8l10.18-1.31,7.22,56.05Z"/><path d="M630.69,48.37a31.6,31.6,0,0,1-6.51,10.5,27.5,27.5,0,0,1-9.9,6.65,31.52,31.52,0,0,1-12.86,2,31.87,31.87,0,0,1-12.73-2.89,27.51,27.51,0,0,1-9.49-7.29,31.38,31.38,0,0,1-5.81-10.91,41.57,41.57,0,0,1-1.71-13.74,41.68,41.68,0,0,1,2.61-13.6A31.12,31.12,0,0,1,580.8,8.68a27.77,27.77,0,0,1,10-6.61,32.11,32.11,0,0,1,12.9-2,31.64,31.64,0,0,1,12.69,2.9,27.69,27.69,0,0,1,9.44,7.24A31,31,0,0,1,631.59,21a41.61,41.61,0,0,1,1.71,13.74A41.74,41.74,0,0,1,630.69,48.37ZM583.42,44A23.32,23.32,0,0,0,587.48,52a18.39,18.39,0,0,0,6.27,5.07,19.89,19.89,0,0,0,15.92.53A18.27,18.27,0,0,0,616.26,53a23.27,23.27,0,0,0,4.58-7.77,34,34,0,0,0,1.93-10.79,34.25,34.25,0,0,0-1.21-10.89,23.41,23.41,0,0,0-4.06-8.06,17.9,17.9,0,0,0-6.27-5,20.44,20.44,0,0,0-15.93-.53,17.83,17.83,0,0,0-6.58,4.6,23.22,23.22,0,0,0-4.58,7.78,33.92,33.92,0,0,0-1.93,10.78A34.25,34.25,0,0,0,583.42,44Z"/><path d="M710.67,14.58,721.26,83.5l-10.92-2.3-2.07-15.06-27.74-5.85-7.88,13L662.43,71.1l37.14-58.86ZM707,57l-4.5-32.77L685.3,52.47Z"/><path d="M808.85,47.25a29.77,29.77,0,0,1,8.61,9.21,24.69,24.69,0,0,1,3.22,12.07q.17,6.81-3.37,15.58t-8.4,13.59a24.74,24.74,0,0,1-10.73,6.49,29.58,29.58,0,0,1-12.58.65,62.13,62.13,0,0,1-13.9-3.92l-16.53-6.67,24.43-60.5,16.52,6.67A62.07,62.07,0,0,1,808.85,47.25Zm1.35,20.21a17.76,17.76,0,0,0-2.65-8.94,19.9,19.9,0,0,0-6.45-6.14,59,59,0,0,0-8.56-4.28L786,45.43,767.86,90.25l6.59,2.66a58.76,58.76,0,0,0,9.13,2.86,19.87,19.87,0,0,0,8.91.06,17.74,17.74,0,0,0,8.11-4.59q3.82-3.6,6.86-11.11T810.2,67.46Z"/><path d="M840.55,133.59l32.76-56.43,8.87,5.15-32.76,56.43Z"/><path d="M927.43,125.72l-33.51,42.34L886,161.8l40.5-51.15,11.22,8.88-10.88,60.14,33.46-42.27,7.9,6.26-40.5,51.15-11.21-8.88Z"/><path d="M1034.66,218.72q.64,9.1-5.52,17.22l-6.51-7.46a16.6,16.6,0,0,0,2.87-10.55q-.42-5.55-5.15-11a19.6,19.6,0,0,0-6.36-4.9,16.75,16.75,0,0,0-7.74-1.62,23.77,23.77,0,0,0-8.68,2,35.1,35.1,0,0,0-9.22,6,37.09,37.09,0,0,0-7.16,8.15,23.4,23.4,0,0,0-3.34,8.29,17.36,17.36,0,0,0,.38,8,18.7,18.7,0,0,0,4,7.2,27.8,27.8,0,0,0,4.75,4.28,18,18,0,0,0,5.86,2.83,13.85,13.85,0,0,0,6.6.1,16.21,16.21,0,0,0,7.06-3.89l1.08-.94-11.17-12.83,6.58-5.73,17.44,20L995.06,266l-5.27-6,5.75-5.6a18.26,18.26,0,0,1-10.7-1.73A32.78,32.78,0,0,1,969,234.08a26.16,26.16,0,0,1-.86-11.61,30.56,30.56,0,0,1,4.26-11.41,45.15,45.15,0,0,1,9.08-10.54,41.78,41.78,0,0,1,11.79-7.42,30.59,30.59,0,0,1,12.06-2.33,27.54,27.54,0,0,1,11.54,2.84,32.22,32.22,0,0,1,10.2,8Q1034,209.62,1034.66,218.72Z"/><path d="M1072,379.74l-7.86,3.8L1045,344l58.75-28.39,4.46,9.24-50.89,24.59Z"/><path d="M1109.75,461.58a31.65,31.65,0,0,1-12-2.89,27.61,27.61,0,0,1-9.42-7.32,31.48,31.48,0,0,1-6-11.56,31.86,31.86,0,0,1-1.25-13,27.37,27.37,0,0,1,4-11.29,31.41,31.41,0,0,1,8.53-8.94,44.42,44.42,0,0,1,26.25-7.72,31,31,0,0,1,12,2.9,27.67,27.67,0,0,1,9.39,7.37,34.4,34.4,0,0,1,7.23,24.56,27.8,27.8,0,0,1-3.92,11.24,30.78,30.78,0,0,1-8.49,8.92,44.33,44.33,0,0,1-26.25,7.73Zm-10.65-46.26a23.43,23.43,0,0,0-6.38,6.38,18.48,18.48,0,0,0-2.85,7.55,19.29,19.29,0,0,0,.67,8.15,18.93,18.93,0,0,0,3.83,7.13,18.54,18.54,0,0,0,6.48,4.8,23.43,23.43,0,0,0,8.82,1.91,38,38,0,0,0,20.8-6.13,23.16,23.16,0,0,0,6.38-6.38,17.76,17.76,0,0,0,2.8-7.53,19.25,19.25,0,0,0-.68-8.05,19.73,19.73,0,0,0-3.81-7.23,17.91,17.91,0,0,0-6.44-4.81,23.24,23.24,0,0,0-8.82-1.91,38.15,38.15,0,0,0-20.8,6.12Z"/><path d="M1166.82,527l-62.14,31.6-1.23-11.09,13.66-6.68L1114,512.67l-14.78-3.44-1.15-10.37,67.52,16.88Zm-41.47,9.75,29.72-14.52-32.16-7.48Z"/><path d="M1166.66,630.34a29.43,29.43,0,0,1-6,11.08,24.78,24.78,0,0,1-10.44,6.88q-6.4,2.3-15.84,1.71t-15.55-3.67a24.69,24.69,0,0,1-9.55-8.13,29.42,29.42,0,0,1-4.59-11.74A62.21,62.21,0,0,1,1104,612l1.12-17.78,65.12,4.07-1.11,17.78A61.39,61.39,0,0,1,1166.66,630.34ZM1147.92,638a17.71,17.71,0,0,0,7.64-5.34,19.85,19.85,0,0,0,3.8-8.06,59.19,59.19,0,0,0,1.35-9.47l.45-7.1-48.24-3-.44,7.1a58.63,58.63,0,0,0,.17,9.57,19.68,19.68,0,0,0,2.76,8.47,17.68,17.68,0,0,0,6.91,6.25c3.08,1.66,7.32,2.67,12.71,3S1144.66,639.28,1147.92,638Z"/><path d="M1094.79,687.7l63.9,13.22-2.08,10-63.9-13.22Z"/><path d="M1129.71,767.67,1079,749.2l3.45-9.47L1143.73,762l-4.89,13.45-60.51,8.63L1129,802.55l-3.45,9.48-61.32-22.32,4.89-13.44Z"/><path d="M1075.08,898.74q-8.43,3.48-18.09.16l5-8.52a16.53,16.53,0,0,0,10.92-.59q5.14-2.13,8.81-8.33a19.64,19.64,0,0,0,2.66-7.57,16.73,16.73,0,0,0-.89-7.86,23.85,23.85,0,0,0-4.64-7.61,35,35,0,0,0-8.59-6.87,36.88,36.88,0,0,0-10-4.25,23.58,23.58,0,0,0-8.92-.58,17.54,17.54,0,0,0-7.45,2.86,18.75,18.75,0,0,0-5.58,6.06,27.84,27.84,0,0,0-2.58,5.85,17.87,17.87,0,0,0-.84,6.45,13.69,13.69,0,0,0,2,6.3,16.18,16.18,0,0,0,5.9,5.48l1.24.74,8.67-14.63,7.51,4.45-13.54,22.84-29-17.17,4.08-6.89,7.12,3.7a18.34,18.34,0,0,1-1.71-10.7,32.76,32.76,0,0,1,12.65-20.9,26.26,26.26,0,0,1,10.75-4.46,30.76,30.76,0,0,1,12.18.47,45.27,45.27,0,0,1,12.85,5.32,41.7,41.7,0,0,1,10.75,8.88,30.58,30.58,0,0,1,6,10.72,27.42,27.42,0,0,1,.92,11.85,32,32,0,0,1-4.4,12.19Q1083.52,895.27,1075.08,898.74Z"/><path d="M933.88,984.64l-6.07-6.27,31.54-30.56,45.4,46.87-7.37,7.13-39.32-40.59Z"/><path d="M868.11,1046.33a31.42,31.42,0,0,1-1.05-12.31,27.51,27.51,0,0,1,4-11.25,34.35,34.35,0,0,1,21-14.62,27.44,27.44,0,0,1,12,.18,31.53,31.53,0,0,1,11.17,5.27,44.45,44.45,0,0,1,15.62,22.47,31.1,31.1,0,0,1,1,12.28,27.61,27.61,0,0,1-4,11.23,34.33,34.33,0,0,1-21,14.62,27.73,27.73,0,0,1-11.9-.17,30.91,30.91,0,0,1-11.15-5.23,44.29,44.29,0,0,1-15.62-22.47Zm40.52-24.72a23.31,23.31,0,0,0-8.06-4,18.35,18.35,0,0,0-8.06-.31,19.26,19.26,0,0,0-7.53,3.2,18.86,18.86,0,0,0-5.55,5.89,18.35,18.35,0,0,0-2.51,7.66,23.33,23.33,0,0,0,1,9,38.11,38.11,0,0,0,12.38,17.81,23.35,23.35,0,0,0,8.07,4,17.92,17.92,0,0,0,8,.28,20.35,20.35,0,0,0,13.08-9.1,17.84,17.84,0,0,0,2.54-7.62,23.33,23.33,0,0,0-1-9,38,38,0,0,0-12.39-17.81Z"/><path d="M824.12,1121.16l-49.63-49,10.13-4.67,10.65,10.84L821,1066.5l-1.42-15.1,9.48-4.38,5.34,69.39Zm-22.37-36.26,23.18,23.6-3.07-32.87Z"/><path d="M725.84,1153.59a29.48,29.48,0,0,1-12.4-2.25,24.68,24.68,0,0,1-9.8-7.76q-4.2-5.37-6.59-14.51t-1.38-15.92a24.66,24.66,0,0,1,4.73-11.61,29.47,29.47,0,0,1,9.71-8,62.25,62.25,0,0,1,13.49-5.16l17.24-4.51L757.37,1147l-17.24,4.51A62.36,62.36,0,0,1,725.84,1153.59Zm-13.15-15.4a17.8,17.8,0,0,0,7.46,5.58,19.75,19.75,0,0,0,8.85,1.08,58.39,58.39,0,0,0,9.42-1.68l6.88-1.8-12.24-46.75-6.88,1.8a58.19,58.19,0,0,0-9,3.16,19.81,19.81,0,0,0-7.18,5.27,17.8,17.8,0,0,0-3.77,8.52q-.91,5.18,1.13,13T712.69,1138.19Z"/><path d="M648.88,1103.24l7.41,64.83-10.19,1.17-7.41-64.83Z"/><path d="M583.93,1161.46l1.53-54,10.07.28L593.69,1173l-14.31-.41-27.26-54.7-1.53,53.89-10.07-.29,1.84-65.22,14.31.4Z"/><path d="M442.32,1151.06q-6-6.91-5.87-17.11l9.68,2.09a16.59,16.59,0,0,0,4,10.18q3.64,4.18,10.69,5.72a19.62,19.62,0,0,0,8,.13,16.72,16.72,0,0,0,7.16-3.33,23.68,23.68,0,0,0,5.76-6.81,35,35,0,0,0,3.8-10.32,36.33,36.33,0,0,0,.87-10.82,23.28,23.28,0,0,0-2.27-8.64,17.52,17.52,0,0,0-5.06-6.17,18.86,18.86,0,0,0-7.51-3.37,28.42,28.42,0,0,0-6.37-.6,18.21,18.21,0,0,0-6.39,1.24,13.73,13.73,0,0,0-5.35,3.86,16.19,16.19,0,0,0-3.34,7.34l-.3,1.4,16.62,3.61-1.85,8.53-25.95-5.62,7.13-32.9,7.83,1.69-1.26,7.93a18.3,18.3,0,0,1,9.61-5,32.73,32.73,0,0,1,23.83,5.39,26.24,26.24,0,0,1,7.63,8.79,30.78,30.78,0,0,1,3.41,11.7,45.54,45.54,0,0,1-1,13.88,41.91,41.91,0,0,1-5,13,30.45,30.45,0,0,1-8.27,9.07,27.58,27.58,0,0,1-10.95,4.63,32.23,32.23,0,0,1-13-.32Q448.28,1158,442.32,1151.06Z"/><path d="M316.29,1044.06l4-7.73,38.92,20.36L329,1114.51l-9.09-4.76,26.21-50.08Z"/><path d="M237.11,1000.92a31.63,31.63,0,0,1,11.37-4.86,27.43,27.43,0,0,1,11.92.25,31.44,31.44,0,0,1,11.7,5.7,32.15,32.15,0,0,1,8.77,9.68,27.47,27.47,0,0,1,3.57,11.42,31.44,31.44,0,0,1-1.51,12.27,44.3,44.3,0,0,1-16.44,21.86,30.86,30.86,0,0,1-11.34,4.82,27.66,27.66,0,0,1-11.93-.3,34.36,34.36,0,0,1-20.47-15.39,27.94,27.94,0,0,1-3.56-11.36,30.83,30.83,0,0,1,1.48-12.22,44.42,44.42,0,0,1,16.44-21.87Zm36.17,30.74a23.19,23.19,0,0,0,1.31-8.92,18.31,18.31,0,0,0-2.22-7.75,19.87,19.87,0,0,0-12.73-9.58,18.47,18.47,0,0,0-8.07,0,23.35,23.35,0,0,0-8.21,3.73,38.08,38.08,0,0,0-13,17.34,23.2,23.2,0,0,0-1.3,8.92,17.93,17.93,0,0,0,2.24,7.72,20.42,20.42,0,0,0,12.74,9.57,17.7,17.7,0,0,0,8,0,23.22,23.22,0,0,0,8.22-3.73,38.15,38.15,0,0,0,13-17.34Z"/><path d="M152.26,982.64l30.89-62.51,7.62,8.15-7,13.52,19.36,20.71,13.9-6.09,7.13,7.63L160,990.92ZM179.66,950l-15.13,29.41,30.25-13.24Z"/><path d="M90.59,899.69a29.52,29.52,0,0,1-1.79-12.47,24.7,24.7,0,0,1,4.26-11.75q3.76-5.69,11.69-10.84t14.66-6.34a24.75,24.75,0,0,1,12.51.81,29.5,29.5,0,0,1,10.69,6.68,61.93,61.93,0,0,1,9.16,11.16l9.73,14.93-54.66,35.64-9.73-14.93A61.78,61.78,0,0,1,90.59,899.69ZM101,882.35a17.64,17.64,0,0,0-2.93,8.85,19.74,19.74,0,0,0,1.77,8.73,58.77,58.77,0,0,0,4.57,8.41l3.88,5.95,40.48-26.39-3.88-6a59.08,59.08,0,0,0-5.85-7.57,19.66,19.66,0,0,0-7.27-5.14,17.68,17.68,0,0,0-9.28-.89q-5.2.76-12,5.18T101,882.35Z"/><path d="M114,810.75,54.84,838.29,50.51,829l59.15-27.54Z"/><path d="M38.23,767.43,90,752l2.89,9.65L30.34,780.31l-4.1-13.71,43.39-43.05L18,739l-2.89-9.66L77.6,710.64l4.11,13.71Z"/><path d="M3.8,629.65q4.7-7.81,14.42-10.92l1,9.84a16.61,16.61,0,0,0-8.4,7Q8,640.35,8.75,647.5a19.7,19.7,0,0,0,2.39,7.67,16.8,16.8,0,0,0,5.4,5.77,23.73,23.73,0,0,0,8.27,3.34,34.82,34.82,0,0,0,11,.38,37,37,0,0,0,10.55-2.55,23.72,23.72,0,0,0,7.5-4.86,17.58,17.58,0,0,0,4.27-6.74,18.85,18.85,0,0,0,.86-8.19,28.06,28.06,0,0,0-1.43-6.23,18,18,0,0,0-3.17-5.68A13.68,13.68,0,0,0,49,626.53a16.2,16.2,0,0,0-8-.88l-1.43.15,1.77,16.92-8.68.91-2.77-26.4,33.47-3.52.84,8L56.31,623a18.3,18.3,0,0,1,7.76,7.56,32.83,32.83,0,0,1,2.33,24.32,26.26,26.26,0,0,1-6,10,31,31,0,0,1-10,6.89,45.48,45.48,0,0,1-13.49,3.41A41.86,41.86,0,0,1,23,674.43a30.38,30.38,0,0,1-11.2-5A27.39,27.39,0,0,1,4,660.45,32.26,32.26,0,0,1,.21,648Q-.9,637.48,3.8,629.65Z"/><path d="M65.59,476.41l8.62,1.39-7,43.36L2.79,510.76l1.64-10.13,55.8,9Z"/><path d="M81.53,387.67a31.63,31.63,0,0,1,8.19,9.25,27.6,27.6,0,0,1,3.53,11.4,34.33,34.33,0,0,1-8.15,24.27,27.39,27.39,0,0,1-9.7,7A31.47,31.47,0,0,1,63.28,442a41.53,41.53,0,0,1-13.66-2.3,41.64,41.64,0,0,1-12.28-6.4,31,31,0,0,1-8.15-9.24,27.73,27.73,0,0,1-3.47-11.42,34.34,34.34,0,0,1,8.14-24.28,27.74,27.74,0,0,1,9.65-7A30.94,30.94,0,0,1,55.59,379a41.45,41.45,0,0,1,13.65,2.31A41.46,41.46,0,0,1,81.53,387.67Zm-17.77,44a23.17,23.17,0,0,0,8.88-1.57,18.49,18.49,0,0,0,6.66-4.56,19.85,19.85,0,0,0,5.07-15.1,18.56,18.56,0,0,0-2.56-7.65,23.31,23.31,0,0,0-6.14-6.61,34.2,34.2,0,0,0-9.78-4.95,34.27,34.27,0,0,0-10.78-1.95,23.17,23.17,0,0,0-8.88,1.57,17.91,17.91,0,0,0-6.62,4.57,20.45,20.45,0,0,0-5.07,15.1,17.89,17.89,0,0,0,2.52,7.64,23.41,23.41,0,0,0,6.13,6.61A34.39,34.39,0,0,0,53,429.74,34.22,34.22,0,0,0,63.76,431.69Z"/><path d="M72.25,301.36l69,9.73-5.36,9.79-15-2.36-13.6,24.88,10.15,11.28-5,9.16L66.81,311.31Zm39.58,15.78L79.15,312l22.06,24.57Z"/><path d="M131.74,216.76A29.58,29.58,0,0,1,143,211.15a24.89,24.89,0,0,1,12.5.37q6.57,1.8,13.95,7.71t10.61,11.94a24.68,24.68,0,0,1,3.14,12.14,29.44,29.44,0,0,1-3,12.24,61.49,61.49,0,0,1-7.73,12.19l-11.13,13.92-51-40.75L121.54,227A61.68,61.68,0,0,1,131.74,216.76Zm19.74,4.5a17.63,17.63,0,0,0-9.32,0,19.86,19.86,0,0,0-7.74,4.41,59.52,59.52,0,0,0-6.55,7l-4.44,5.55,37.74,30.18,4.44-5.55a59,59,0,0,0,5.36-7.93,19.81,19.81,0,0,0,2.61-8.51,17.81,17.81,0,0,0-2.07-9.09q-2.35-4.69-8.68-9.76T151.48,221.26Z"/><path d="M223.5,211.13l-44.73-47.51,7.47-7L231,204.09Z"/><path d="M240.74,125.59l31,44.2-8.25,5.8L226,122.18,237.74,114l54.55,27.58-31-44.12,8.26-5.8L307.06,145l-11.72,8.23Z"/><path d="M360.54,49.37q8.9,2,14.92,10.23l-9,4.09a16.56,16.56,0,0,0-9.29-5.76q-5.45-1.18-12,1.79a19.56,19.56,0,0,0-6.52,4.69,16.74,16.74,0,0,0-3.76,7,23.73,23.73,0,0,0-.56,8.9,35.18,35.18,0,0,0,3.12,10.55,36.67,36.67,0,0,0,5.76,9.19,23.39,23.39,0,0,0,7,5.58,17.43,17.43,0,0,0,7.74,1.92,18.68,18.68,0,0,0,8-1.78,27.61,27.61,0,0,0,5.46-3.32,17.89,17.89,0,0,0,4.39-4.81,13.73,13.73,0,0,0,2-6.29,16.29,16.29,0,0,0-1.7-7.88l-.6-1.31-15.49,7-3.61-8,24.17-11,13.93,30.64-7.29,3.32-3.73-7.11a18.16,18.16,0,0,1-4.71,9.75,32.76,32.76,0,0,1-22.34,9.91,26.14,26.14,0,0,1-11.36-2.5,30.72,30.72,0,0,1-9.72-7.35,45.36,45.36,0,0,1-7.5-11.72,41.76,41.76,0,0,1-3.73-13.43,30.6,30.6,0,0,1,1.22-12.22,27.34,27.34,0,0,1,6-10.24A32.21,32.21,0,0,1,342,51.78Q351.64,47.4,360.54,49.37Z"/></g></g></svg>