<svg id="Layer_1" data-name="Layer 1" xmlns="http://www.w3.org/2000/svg" viewBox="0 0 388.67 43.4"><title>logotype_black</title><path d="M108.63,270.8v3.8c-.28-1.52-3.61-4.23-7.79-4.23-5.28,0-11.84,4.28-11.84,12.79,0,8.7,6.56,12.83,11.84,12.83,4.18,0,7.51-2.56,7.79-4.66v4.19c0,2.37-1.95,4.7-6.32,4.7a14,14,0,0,1-6.85-1.42v5a14.34,14.34,0,0,0,6.85,1.47c5.23,0,12.41-2.33,12.41-9.79V270.8Zm-6.8,19.77c-3.56,0-6.89-2.47-6.89-7.41s3.33-7.37,6.89-7.37a6.94,6.94,0,0,1,7.09,7.37C108.92,288.1,105.4,290.57,101.83,290.57Z" transform="translate(-89 -261.91)"/><path d="M134.3,270.42a8.71,8.71,0,0,0-8.65,6.61V270.8h-6.13v24.72h6.13v-11a8.76,8.76,0,0,1,8.84-8.27,9.14,9.14,0,0,1,1.52.09v-5.85A10.58,10.58,0,0,0,134.3,270.42Z" transform="translate(-89 -261.91)"/><path d="M150.22,270.37a12.66,12.66,0,0,0-12.64,12.84c0,8.5,6.89,12.78,13.07,12.78,4.75,0,7.8-1.47,10-3.8l-3.37-3.28a10.24,10.24,0,0,1-6.42,1.9c-3.57,0-6.42-1.85-7.18-5.46h18.49C163.53,274.65,155.83,270.37,150.22,270.37Zm0,5.23a6.62,6.62,0,0,1,6.56,5.32H143.71A6.72,6.72,0,0,1,150.22,275.6Z" transform="translate(-89 -261.91)"/><path d="M176.93,270.37a12.66,12.66,0,0,0-12.64,12.84c0,8.5,6.89,12.78,13.07,12.78,4.76,0,7.8-1.47,10-3.8L184,288.91a10.22,10.22,0,0,1-6.42,1.9c-3.56,0-6.41-1.85-7.18-5.46h18.5C190.24,274.65,182.54,270.37,176.93,270.37Zm0,5.23a6.62,6.62,0,0,1,6.56,5.32H170.42A6.73,6.73,0,0,1,176.93,275.6Z" transform="translate(-89 -261.91)"/><path d="M207.07,270.42a8.94,8.94,0,0,0-8.27,5.23V270.8h-6.13v24.72h6.13V280.69c.43-1.33,2.28-4.95,6.37-4.95,2.61,0,5,1.62,5,5.9v13.88h6.08V281.26C216.29,273.51,211.63,270.42,207.07,270.42Z" transform="translate(-89 -261.91)"/><path d="M242.77,270.37c-5.61,0-12.89,4.28-12.89,12.84S237.16,296,242.77,296a11.75,11.75,0,0,0,10.64-5.9l-4.75-2.19a7.39,7.39,0,1,1,0-9.36l4.66-2.19A11.6,11.6,0,0,0,242.77,270.37Z" transform="translate(-89 -261.91)"/><path d="M271.52,270.42a9,9,0,0,0-8.27,5.23V261.91h-6.13v33.61h6.13V280.69c.43-1.33,2.28-4.95,6.37-4.95,2.62,0,5,1.62,5,5.9v13.88h6.08V281.26C280.74,273.51,276.09,270.42,271.52,270.42Z" transform="translate(-89 -261.91)"/><path d="M296.05,270.37c-5.28,0-11.84,4.28-11.84,12.79,0,8.7,6.56,12.83,11.84,12.83,4.18,0,7.51-2.56,7.79-4.66v4.19h6.09V270.8h-6.09v3.8C303.56,273.08,300.23,270.37,296.05,270.37Zm1,5.42a6.93,6.93,0,0,1,7.08,7.37c0,4.94-3.52,7.41-7.08,7.41s-6.9-2.47-6.9-7.41S293.48,275.79,297.05,275.79Z" transform="translate(-89 -261.91)"/><path d="M346.43,270.42a9.86,9.86,0,0,0-9.08,5.7,9.78,9.78,0,0,0-8.89-5.7c-5,0-7.46,4-7.6,5.42v-5h-6.13v24.72h6.13V281.4c.52-2.95,2.52-5.66,6.13-5.66,3,0,5.37,2.38,5.37,6.14v13.64h6.13V281.4c.57-2.76,2.71-5.66,6.14-5.66s5.37,2.38,5.37,6.14v13.64h6.08V281.78C356.08,273.6,351.42,270.42,346.43,270.42Z" transform="translate(-89 -261.91)"/><path d="M372.19,270.37a12.66,12.66,0,0,0-12.64,12.84c0,8.5,6.89,12.78,13.07,12.78,4.75,0,7.8-1.47,10-3.8l-3.37-3.28a10.22,10.22,0,0,1-6.42,1.9c-3.56,0-6.42-1.85-7.18-5.46h18.49C385.5,274.65,377.8,270.37,372.19,270.37Zm0,5.23a6.62,6.62,0,0,1,6.56,5.32H365.68A6.73,6.73,0,0,1,372.19,275.6Z" transform="translate(-89 -261.91)"/><path d="M394.06,261.91h-6.13v33.61h6.13Z" transform="translate(-89 -261.91)"/><path d="M410.31,270.37a12.66,12.66,0,0,0-12.64,12.84c0,8.5,6.89,12.78,13.07,12.78,4.75,0,7.8-1.47,10-3.8l-3.37-3.28a10.22,10.22,0,0,1-6.42,1.9c-3.56,0-6.42-1.85-7.18-5.46h18.49C423.62,274.65,415.92,270.37,410.31,270.37Zm0,5.23a6.62,6.62,0,0,1,6.56,5.32H403.8A6.73,6.73,0,0,1,410.31,275.6Z" transform="translate(-89 -261.91)"/><path d="M437.5,270.37c-5.61,0-12.88,4.28-12.88,12.84S431.89,296,437.5,296s12.88-4.13,12.88-12.78S443.11,270.37,437.5,270.37Zm0,5.42a7.4,7.4,0,1,1-6.94,7.42A7,7,0,0,1,437.5,275.79Z" transform="translate(-89 -261.91)"/><path d="M468.44,270.42a9,9,0,0,0-8.27,5.23V270.8H454v24.72h6.13V280.69c.43-1.33,2.29-4.95,6.37-4.95,2.62,0,5,1.62,5,5.9v13.88h6.09V281.26C477.67,273.51,473,270.42,468.44,270.42Z" transform="translate(-89 -261.91)"/></svg>