<svg xmlns="http://www.w3.org/2000/svg" viewBox="0 0 72.28 1113.85"><defs><style>.cls-1{fill:#1d1d1b;}</style></defs><title>right</title><g id="Layer_2" data-name="Layer 2"><g id="Layer_1-2" data-name="Layer 1"><path class="cls-1" d="M71.12,44.43,1.25,70.84V52.91l12.44-4.24v-27L1.25,17.54V0L71.12,26.31Zm-44-.19,26.6-9-26.6-9.06Z"/><path class="cls-1" d="M56.67,110.84H71.12v61.39H56.67V149.77H1.25V133.19H56.67Z"/><path class="cls-1" d="M1.25,188.71H71.12v16.48H1.25Z"/><path class="cls-1" d="M57.15,243.45H1.25v-16H71.12v26L21,266.87l50.11,13.68v25.74H1.25v-16h56l-56-15.61V259.16Z"/><path class="cls-1" d="M71.12,382.14H56.67V345H44.43v35.08H29.88V345H15.81v37.11H1.25V328.55H71.12Z"/><path class="cls-1" d="M56.67,426.57H71.12V488H56.67V465.51H1.25V448.93H56.67Z"/><path class="cls-1" d="M21.3,567.71a32.78,32.78,0,0,1-11.37-7.42A33.2,33.2,0,0,1,2.6,548.83a43,43,0,0,1,0-29.45A33.31,33.31,0,0,1,9.93,508a32.93,32.93,0,0,1,11.37-7.42,39.89,39.89,0,0,1,14.84-2.65A39.89,39.89,0,0,1,51,500.54,32.83,32.83,0,0,1,62.35,508a33.31,33.31,0,0,1,7.33,11.42,43,43,0,0,1,0,29.45,33.2,33.2,0,0,1-7.33,11.46A32.69,32.69,0,0,1,51,567.71a39.69,39.69,0,0,1-14.84,2.66A39.69,39.69,0,0,1,21.3,567.71Zm5.06-50.88a20.83,20.83,0,0,0-7,4,16.8,16.8,0,0,0-4.29,6,19.12,19.12,0,0,0,0,14.56,16.8,16.8,0,0,0,4.29,6,21,21,0,0,0,7,4,29.23,29.23,0,0,0,9.78,1.49,29.23,29.23,0,0,0,9.78-1.49,21,21,0,0,0,7-4,16.8,16.8,0,0,0,4.29-6,19.12,19.12,0,0,0,0-14.56,16.8,16.8,0,0,0-4.29-6,20.83,20.83,0,0,0-7-4,29,29,0,0,0-9.78-1.49A29,29,0,0,0,26.36,516.83Z"/><path class="cls-1" d="M27.56,635.33H1.25V618.85H71.12v26.89a81.27,81.27,0,0,1-.91,12.57,28.94,28.94,0,0,1-3.37,10.07A17.83,17.83,0,0,1,60.19,675a21.14,21.14,0,0,1-10.65,2.41q-7.71,0-12.34-3.85a23.68,23.68,0,0,1-6.94-9.83L1.25,681V661.64l26.31-15.13Zm13.88,0v10.89a49.11,49.11,0,0,0,.29,5.44,13.8,13.8,0,0,0,1.16,4.39,7.07,7.07,0,0,0,2.41,2.89,6.94,6.94,0,0,0,4,1.06,6.77,6.77,0,0,0,3.95-1.06,7.07,7.07,0,0,0,2.41-2.89,14.9,14.9,0,0,0,1.21-4.39,42.46,42.46,0,0,0,.34-5.44V635.33Z"/><path class="cls-1" d="M71.12,751.56H56.67V714.45H44.43v35.08H29.88V714.45H15.81v37.11H1.25V698H71.12Z"/><path class="cls-1" d="M71.12,823H56.67V788H44.43v32.86H29.88V788H1.25V771.51H71.12Z"/><path class="cls-1" d="M15.81,888.9H1.25v-50H71.12v16.48H15.81Z"/><path class="cls-1" d="M71.12,958.39H56.67V921.28H44.43v35.08H29.88V921.28H15.81v37.11H1.25V904.8H71.12Z"/><path class="cls-1" d="M16.19,1038.53a31.19,31.19,0,0,1-8.62-7.18,31.75,31.75,0,0,1-5.59-10,36.84,36.84,0,0,1-2-12.29,40.2,40.2,0,0,1,2.51-14.64,30.11,30.11,0,0,1,7.22-11,31.91,31.91,0,0,1,11.42-6.94,44.32,44.32,0,0,1,15.09-2.41,42.78,42.78,0,0,1,14.93,2.46,31.79,31.79,0,0,1,11.38,7.08,31,31,0,0,1,7.23,11.18,41,41,0,0,1,2.5,14.75,34.94,34.94,0,0,1-2,12.09,31.22,31.22,0,0,1-5.64,9.74,30.28,30.28,0,0,1-8.63,6.89,33.18,33.18,0,0,1-11,3.56v-16.19a18.21,18.21,0,0,0,6.16-2.26,14.81,14.81,0,0,0,4.25-3.81,15.86,15.86,0,0,0,2.45-5,19.54,19.54,0,0,0,.82-5.64,16,16,0,0,0-1.49-6.84,15.79,15.79,0,0,0-4.39-5.55,21.5,21.5,0,0,0-7.08-3.71,30.89,30.89,0,0,0-9.49-1.35,32.11,32.11,0,0,0-9.74,1.35,21.57,21.57,0,0,0-7.13,3.71,15.27,15.27,0,0,0-4.34,5.59,17,17,0,0,0-1.44,7,23.69,23.69,0,0,0,.63,5.4,14.42,14.42,0,0,0,2.21,5,15.24,15.24,0,0,0,4.24,4,18.49,18.49,0,0,0,6.6,2.5v16.19A32.7,32.7,0,0,1,16.19,1038.53Z"/><path class="cls-1" d="M56.67,1052.46H71.12v61.39H56.67v-22.46H1.25v-16.57H56.67Z"/></g></g></svg>