<svg xmlns="http://www.w3.org/2000/svg" viewBox="0 0 607.38 72.28"><defs><style>.cls-1{fill:#1d1d1b;}</style></defs><title>say-hello</title><g id="Layer_2" data-name="Layer 2"><g id="Layer_1-2" data-name="Layer 1"><path class="cls-1" d="M38.31,15.32a17.4,17.4,0,0,0-8.92-2.12,16.25,16.25,0,0,0-7.95,1.74,5.47,5.47,0,0,0-3.13,5,5.56,5.56,0,0,0,2.22,4.43A13.31,13.31,0,0,0,26.41,27L36,28.91c2.82.58,5.75,1.29,8.77,2.12A33.47,33.47,0,0,1,53,34.5a19.24,19.24,0,0,1,6.12,5.79,15.85,15.85,0,0,1,2.41,9.05,18.69,18.69,0,0,1-2.56,9.79,23.38,23.38,0,0,1-6.65,7.18,31.54,31.54,0,0,1-9.35,4.43,37.84,37.84,0,0,1-10.74,1.54q-13.5,0-21.88-6.31T0,48.28H16.38a12.59,12.59,0,0,0,5.54,8.1A20,20,0,0,0,32.57,59a24.42,24.42,0,0,0,4.25-.38,14.39,14.39,0,0,0,3.85-1.26A7.57,7.57,0,0,0,43.46,55a6,6,0,0,0,1.07-3.66q0-3.37-3.62-5.25A38,38,0,0,0,31.51,43L23,41.25a50.44,50.44,0,0,1-8.19-2.41,26.31,26.31,0,0,1-6.94-4,18.32,18.32,0,0,1-4.77-5.83,17.41,17.41,0,0,1-1.78-8.15A16.46,16.46,0,0,1,4,11.66,21.89,21.89,0,0,1,10.7,5.11a31.12,31.12,0,0,1,9.35-3.86A44.17,44.17,0,0,1,30.36,0a42.48,42.48,0,0,1,10,1.16,27.2,27.2,0,0,1,8.82,3.76,23.92,23.92,0,0,1,6.7,6.64,23.53,23.53,0,0,1,3.61,9.83H43.18A10.56,10.56,0,0,0,38.31,15.32Z"/><path class="cls-1" d="M115.56,1.16,142,71H124L119.8,58.6h-27L88.67,71H71.13L97.44,1.16Zm-.2,44-9-26.6L97.34,45.2Z"/><path class="cls-1" d="M173.38,28,189.19,1.16h19.08L181.29,44V71H164.81V43.85L138.5,1.16h19.27Z"/><path class="cls-1" d="M314.77,71H298.29V42.4H269.57V71H253.09V1.16h16.48V27.85h28.72V1.16h16.48Z"/><path class="cls-1" d="M390.72,1.16V15.61H353.61V27.85h35.08V42.4H353.61V56.47h37.11V71H337.13V1.16Z"/><path class="cls-1" d="M460.69,56.47V71h-50V1.16h16.48V56.47Z"/><path class="cls-1" d="M526.61,56.47V71h-50V1.16h16.48V56.47Z"/><path class="cls-1" d="M604.73,51a32.83,32.83,0,0,1-7.42,11.37,33.24,33.24,0,0,1-11.47,7.33,43,43,0,0,1-29.44,0A33.35,33.35,0,0,1,545,62.35,32.83,32.83,0,0,1,537.55,51a39.89,39.89,0,0,1-2.65-14.84,39.89,39.89,0,0,1,2.65-14.84A32.93,32.93,0,0,1,545,9.93,33.35,33.35,0,0,1,556.4,2.6a43,43,0,0,1,29.44,0,33.24,33.24,0,0,1,11.47,7.33,32.93,32.93,0,0,1,7.42,11.37,39.89,39.89,0,0,1,2.65,14.84A39.89,39.89,0,0,1,604.73,51Zm-50.89-5.06a21,21,0,0,0,4,7,16.8,16.8,0,0,0,6,4.29,19.12,19.12,0,0,0,14.56,0,16.8,16.8,0,0,0,6-4.29,21,21,0,0,0,4.05-7,29,29,0,0,0,1.49-9.78,29,29,0,0,0-1.49-9.78,21,21,0,0,0-4.05-7,16.8,16.8,0,0,0-6-4.29,19.12,19.12,0,0,0-14.56,0,16.8,16.8,0,0,0-6,4.29,21,21,0,0,0-4,7,29.23,29.23,0,0,0-1.49,9.78A29.23,29.23,0,0,0,553.84,45.92Z"/></g></g></svg>