<svg xmlns="http://www.w3.org/2000/svg" viewBox="0 0 103.52 13.25"><defs><style>.cls-1{fill:#1d1d1b;}</style></defs><title>welcome</title><g id="Layer_2" data-name="Layer 2"><g id="Layer_1-2" data-name="Layer 1"><path class="cls-1" d="M13.16.21h3L13.29,13H10L8.09,4,6.17,13H2.93L0,.21H3.06L4.81,9.06,6.54.21H9.67L11.56,9.1Z"/><path class="cls-1" d="M29,.21V2.86h-6.8V5.11h6.43V7.77H22.15v2.58H29V13H19.12V.21Z"/><path class="cls-1" d="M41.78,10.35V13H32.61V.21h3V10.35Z"/><path class="cls-1" d="M55.12,10.28A5.66,5.66,0,0,1,52,12.89a6.81,6.81,0,0,1-2.25.36A7.33,7.33,0,0,1,47,12.79a5.54,5.54,0,0,1-2-1.32,5.85,5.85,0,0,1-1.27-2.1,8,8,0,0,1-.44-2.76,7.87,7.87,0,0,1,.45-2.74,5.82,5.82,0,0,1,1.3-2.09,5.71,5.71,0,0,1,2-1.32A7.52,7.52,0,0,1,49.81,0,6.39,6.39,0,0,1,52,.37a5.81,5.81,0,0,1,1.78,1A5.61,5.61,0,0,1,55.07,3a6.1,6.1,0,0,1,.66,2h-3a3.16,3.16,0,0,0-.42-1.13,2.62,2.62,0,0,0-.69-.78,3,3,0,0,0-.91-.45,3.63,3.63,0,0,0-1-.15,2.79,2.79,0,0,0-1.25.28,2.9,2.9,0,0,0-1,.8,4,4,0,0,0-.68,1.3,5.8,5.8,0,0,0-.25,1.74,6,6,0,0,0,.25,1.78,4,4,0,0,0,.68,1.31,2.85,2.85,0,0,0,1,.8,3.18,3.18,0,0,0,1.28.26,4.77,4.77,0,0,0,1-.11,2.92,2.92,0,0,0,.92-.41,2.77,2.77,0,0,0,.74-.78,3.51,3.51,0,0,0,.46-1.21h3A6,6,0,0,1,55.12,10.28Z"/><path class="cls-1" d="M71.34,9.35a5.92,5.92,0,0,1-3.46,3.42,7.83,7.83,0,0,1-5.4,0,5.91,5.91,0,0,1-2.09-1.34A6.06,6.06,0,0,1,59,9.35a7.4,7.4,0,0,1-.49-2.72A7.41,7.41,0,0,1,59,3.9a6.06,6.06,0,0,1,1.36-2.08A5.91,5.91,0,0,1,62.48.48a7.83,7.83,0,0,1,5.4,0A5.92,5.92,0,0,1,71.34,3.9a7.21,7.21,0,0,1,.49,2.73A7.2,7.2,0,0,1,71.34,9.35ZM62,8.42a3.86,3.86,0,0,0,.74,1.29,3,3,0,0,0,1.09.79,3.55,3.55,0,0,0,1.34.26,3.5,3.5,0,0,0,1.33-.26,3.15,3.15,0,0,0,1.1-.79,3.86,3.86,0,0,0,.74-1.29,5.39,5.39,0,0,0,.27-1.79,5.45,5.45,0,0,0-.27-1.8,3.86,3.86,0,0,0-.74-1.29,3.12,3.12,0,0,0-1.1-.78,3.33,3.33,0,0,0-1.33-.27,3.38,3.38,0,0,0-1.34.27,3,3,0,0,0-1.09.78A3.86,3.86,0,0,0,62,4.83a5.2,5.2,0,0,0-.28,1.8A5.14,5.14,0,0,0,62,8.42Z"/><path class="cls-1" d="M78.09,2.77V13H75.16V.21h4.77L82.39,9.4,84.89.21h4.72V13H86.68V2.76L83.82,13H81Z"/><path class="cls-1" d="M103.52.21V2.86h-6.8V5.11h6.43V7.77H96.72v2.58h6.8V13H93.7V.21Z"/></g></g></svg>